<svg width="80" height="81" viewBox="0 0 80 81" fill="none" xmlns="http://www.w3.org/2000/svg">
<path d="M56.8326 68.0639C53.5659 71.2305 49.9992 70.7305 46.5659 69.2305C42.9326 67.6972 39.5992 67.6305 35.7659 69.2305C30.9659 71.2972 28.4326 70.6972 25.5659 68.0639C9.29924 51.2972 11.6992 25.7639 30.1659 24.8305C34.6659 25.0639 37.7992 27.2972 40.4326 27.4972C44.3659 26.6972 48.1326 24.3972 52.3326 24.6972C57.3659 25.0972 61.1659 27.0972 63.6659 30.6972C53.2659 36.9305 55.7326 50.6305 65.2659 54.4639C63.3659 59.4639 60.8992 64.4305 56.7992 68.0972L56.8326 68.0639ZM40.0992 24.6305C39.5992 17.1972 45.6326 11.0639 52.5659 10.4639C53.5326 19.0639 44.7659 25.4639 40.0992 24.6305Z" fill="white"/>
</svg>
