<svg width="288" height="100" viewBox="0 0 288 100" fill="none" xmlns="http://www.w3.org/2000/svg">
<g clip-path="url(#clip0_589_1375)">
<path d="M3.38573 54.759V61.991H11.3877V54.759H13.7207V71.604H11.3877V63.999H3.38573V71.604H1.05273V54.759H3.38573Z" fill="black"/>
<path d="M22.9871 59.5881C27.6761 59.5881 28.7261 63.2751 28.7261 65.7251C28.7261 69.1551 26.7891 72.0001 22.8001 72.0001C18.9271 72.0001 17.0371 69.3161 17.0371 65.8881C17.0381 62.9941 18.3911 59.5881 22.9871 59.5881ZM22.8471 70.3671C24.5041 70.3671 26.3931 69.1781 26.3931 65.6541C26.3931 62.7381 25.0401 61.1981 22.9871 61.1981C21.5871 61.1981 19.3241 62.0841 19.3241 65.7481C19.3241 68.1501 20.3511 70.3671 22.8471 70.3671Z" fill="black"/>
<path d="M38.8313 63.6481C38.7853 63.1111 38.6213 61.1981 36.4983 61.1981C33.4653 61.1981 33.4653 64.7201 33.4653 65.6071C33.4653 68.0101 34.0483 70.2501 36.3823 70.2501C38.2493 70.2501 38.8793 68.8511 38.9253 67.7071H41.1423C41.0023 69.9941 39.2992 71.9061 36.4062 71.9061C35.6133 71.9061 33.7933 71.7441 32.5563 70.3901C31.8563 69.5741 31.1562 68.3371 31.1562 65.9101C31.1562 61.0351 34.1423 59.5881 36.4753 59.5881C37.2453 59.5881 38.9953 59.7521 40.0683 61.0351C40.9313 62.0381 41.0013 62.9941 41.0473 63.6481H38.8313Z" fill="black"/>
<path d="M42.6602 54.782H44.8762V61.618C45.5992 60.381 47.0462 59.681 48.6792 59.681C49.9162 59.681 51.6892 60.124 52.3662 61.547C52.5992 62.014 52.7622 62.573 52.7622 64.276V71.602H50.5222V64.672C50.5222 63.623 50.5222 61.359 48.0022 61.359C46.3692 61.359 45.5522 62.363 45.2492 62.922C44.8762 63.576 44.8762 64.672 44.8762 65.396V71.602H42.6602V54.782Z" fill="black"/>
<path d="M58.1774 68.1271C58.1544 69.0141 58.6204 70.2501 60.7434 70.2501C61.6534 70.2501 62.3294 70.0871 62.7964 69.5041C63.0294 69.2011 63.1694 68.8041 63.1694 68.4071C63.1694 67.2631 62.3534 67.0541 60.6034 66.6571C58.1534 66.0971 56.1004 65.6071 56.1004 63.1581C56.1004 61.0121 57.9674 59.6111 60.6734 59.6111C62.1434 59.6111 64.1954 60.0311 64.8964 61.4311C65.1994 62.0831 65.1994 62.6441 65.1994 63.1341H62.9594C63.0294 61.3611 61.4894 61.2201 60.6964 61.2201C60.3694 61.2201 58.3174 61.2201 58.3174 62.9011C58.3174 63.9741 59.3674 64.2301 59.9734 64.3941C63.2164 65.1641 63.9164 65.3511 64.6164 66.0031C65.2694 66.6101 65.5024 67.4271 65.5024 68.1731C65.5024 69.4801 64.7794 70.5991 63.9164 71.1361C62.8904 71.7661 61.6534 71.9291 60.4404 71.9291C58.0604 71.9291 55.8444 70.9501 55.8674 68.1261L58.1774 68.1271Z" fill="black"/>
<path d="M75.257 63.6481C75.211 63.1111 75.047 61.1981 72.924 61.1981C69.891 61.1981 69.891 64.7201 69.891 65.6071C69.891 68.0101 70.474 70.2501 72.808 70.2501C74.675 70.2501 75.305 68.8511 75.351 67.7071H77.568C77.428 69.9941 75.725 71.9061 72.832 71.9061C72.039 71.9061 70.219 71.7441 68.982 70.3901C68.282 69.5741 67.582 68.3371 67.582 65.9101C67.582 61.0351 70.568 59.5881 72.901 59.5881C73.671 59.5881 75.421 59.7521 76.494 61.0351C77.357 62.0381 77.427 62.9941 77.473 63.6481H75.257Z" fill="black"/>
<path d="M79.0859 54.782H81.3019V61.618C82.0249 60.381 83.4719 59.681 85.1049 59.681C86.3419 59.681 88.1149 60.124 88.7919 61.547C89.0249 62.014 89.1879 62.573 89.1879 64.276V71.602H86.9479V64.672C86.9479 63.623 86.9479 61.359 84.4279 61.359C82.7949 61.359 81.9779 62.363 81.6749 62.922C81.3019 63.576 81.3019 64.672 81.3019 65.396V71.602H79.0859V54.782Z" fill="black"/>
<path d="M95.3503 59.8921V67.4281C95.3503 68.5711 95.6073 70.0181 97.8473 70.0181C98.9433 70.0181 99.9703 69.6441 100.6 68.7111C101.09 68.0111 101.09 67.1011 101.09 66.5181V59.8921H103.353V69.4111C103.353 69.6441 103.399 70.9511 103.423 71.6041H101.137L101.09 69.5981C100.67 70.4141 99.8773 71.7211 97.3573 71.7211C94.4643 71.7211 93.1113 70.0641 93.1113 67.7541V59.8921H95.3503Z" fill="black"/>
<path d="M107.648 54.782H109.841V71.603H107.648V54.782Z" fill="black"/>
<path d="M115.419 66.1451C115.373 68.5711 116.376 70.3681 118.779 70.3681C120.202 70.3681 121.345 69.6221 121.532 67.9411H123.725C123.655 68.5241 123.562 69.4811 122.722 70.3911C122.209 70.9741 121.042 71.9541 118.686 71.9541C114.999 71.9541 113.25 69.6681 113.25 65.9581C113.25 63.6491 113.716 61.7351 115.56 60.4521C116.68 59.6591 118.08 59.5891 118.756 59.5891C124.006 59.5891 123.889 64.2321 123.842 66.1461H115.419V66.1451ZM121.602 64.6041C121.625 63.4841 121.415 61.1511 118.709 61.1511C117.286 61.1511 115.56 62.0141 115.513 64.6041H121.602Z" fill="black"/>
<path d="M139.407 56.393C139.033 56.37 138.567 56.346 138.124 56.346C136.351 56.346 136.351 57.233 136.351 58.049V59.892H139.08V61.479H136.351V71.604H134.181V61.479H131.871V59.892H134.181V58.562C134.181 56.952 134.274 56.37 134.671 55.762C135.161 55.016 136.094 54.479 137.611 54.479C138.241 54.479 138.941 54.573 139.407 54.643V56.393Z" fill="black"/>
<path d="M143.327 59.8921V67.4281C143.327 68.5711 143.584 70.0181 145.824 70.0181C146.92 70.0181 147.947 69.6441 148.577 68.7111C149.066 68.0111 149.066 67.1011 149.066 66.5181V59.8921H151.33V69.4111C151.33 69.6441 151.377 70.9511 151.4 71.6041H149.113L149.066 69.5981C148.646 70.4141 147.853 71.7211 145.334 71.7211C142.441 71.7211 141.088 70.0641 141.088 67.7541V59.8921H143.327ZM143.093 54.8281H145.239V57.2091H143.093V54.8281ZM147.503 54.8281H149.673V57.2091H147.503V54.8281Z" fill="black"/>
<path d="M155.694 62.271C155.694 61.478 155.647 60.662 155.578 59.891H157.794L157.841 62.154C158.261 60.521 159.661 59.984 160.641 59.844C161.294 59.751 161.785 59.775 162.158 59.798V61.944C162.041 61.897 161.901 61.874 161.738 61.85C161.575 61.826 161.365 61.827 161.108 61.827C158.518 61.827 157.912 63.366 157.912 65.373V71.602H155.695L155.694 62.271Z" fill="black"/>
<path d="M182.552 58.959C182.294 57.395 181.034 56.322 178.748 56.322C177.161 56.322 175.832 56.742 174.945 57.745C173.475 59.379 173.149 61.571 173.149 63.158C173.149 64.581 173.452 66.984 174.688 68.454C175.785 69.714 177.488 70.11 179.167 70.11C181.08 70.11 182.293 69.736 182.83 69.574V64.581H178.98V62.644H185.163V70.95C184.184 71.277 182.037 71.976 179.167 71.976C176.064 71.976 174.244 71.089 173.055 69.876C171.399 68.196 170.699 65.84 170.699 63.46C170.699 61.78 171.119 57.814 174.315 55.667C175.971 54.548 178.165 54.478 179.004 54.478C180.334 54.478 182.363 54.642 183.973 56.275C184.977 57.325 185.047 58.304 185.094 58.959H182.552Z" fill="black"/>
<path d="M190.628 66.1451C190.581 68.5711 191.584 70.3681 193.987 70.3681C195.41 70.3681 196.553 69.6221 196.74 67.9411H198.932C198.863 68.5241 198.77 69.4811 197.93 70.3911C197.416 70.9741 196.25 71.9541 193.893 71.9541C190.207 71.9541 188.457 69.6681 188.457 65.9581C188.457 63.6491 188.924 61.7351 190.767 60.4521C191.887 59.6591 193.287 59.5891 193.963 59.5891C199.213 59.5891 199.096 64.2321 199.049 66.1461H190.628V66.1451ZM196.81 64.6041C196.833 63.4841 196.624 61.1511 193.917 61.1511C192.494 61.1511 190.768 62.0141 190.721 64.6041H196.81Z" fill="black"/>
<path d="M203.533 68.1271C203.51 69.0141 203.976 70.2501 206.099 70.2501C207.008 70.2501 207.685 70.0871 208.152 69.5041C208.384 69.2011 208.525 68.8041 208.525 68.4071C208.525 67.2631 207.709 67.0541 205.959 66.6571C203.51 66.0971 201.456 65.6071 201.456 63.1581C201.456 61.0121 203.322 59.6111 206.029 59.6111C207.499 59.6111 209.551 60.0311 210.252 61.4311C210.555 62.0831 210.555 62.6441 210.555 63.1341H208.316C208.385 61.3611 206.846 61.2201 206.053 61.2201C205.726 61.2201 203.673 61.2201 203.673 62.9011C203.673 63.9741 204.723 64.2301 205.329 64.3941C208.572 65.1641 209.271 65.3511 209.973 66.0031C210.625 66.6101 210.859 67.4271 210.859 68.1731C210.859 69.4801 210.135 70.5991 209.272 71.1361C208.247 71.7661 207.009 71.9291 205.796 71.9291C203.416 71.9291 201.199 70.9501 201.223 68.1261L203.533 68.1271Z" fill="black"/>
<path d="M212.145 59.845H214.221V57.395L216.391 56.696V59.845H219.004V61.455H216.391V68.476C216.391 69.06 216.391 70.04 217.954 70.04C218.397 70.04 218.817 69.97 219.005 69.923V71.626C218.609 71.696 217.978 71.766 217.185 71.766C215.179 71.766 214.222 71.183 214.222 69.27V61.455H212.146L212.145 59.845Z" fill="black"/>
<path d="M228.851 71.6041C228.687 71.0201 228.641 70.4611 228.641 69.8541C227.591 71.7911 226.004 71.9771 225.025 71.9771C222.341 71.9771 220.895 70.4611 220.895 68.5241C220.895 67.5911 221.221 66.0981 222.948 65.0941C224.208 64.3951 226.075 64.3241 227.008 64.3241C227.569 64.3241 227.918 64.3471 228.595 64.3941C228.595 62.9471 228.595 62.3181 228.175 61.8041C227.732 61.2201 226.775 61.0341 226.145 61.0341C223.929 61.0341 223.812 62.5501 223.789 63.0161H221.597C221.666 62.4101 221.737 61.5931 222.413 60.7991C223.3 59.8201 224.956 59.5391 226.192 59.5391C227.895 59.5391 229.715 60.0761 230.345 61.2661C230.718 61.9661 230.741 62.5261 230.741 63.0631L230.647 68.6631C230.647 68.8501 230.67 70.4131 230.834 71.6021H228.851V71.6041ZM227.334 65.8411C226.447 65.8411 223.111 65.8411 223.111 68.2211C223.111 68.9671 223.577 70.2501 225.537 70.2501C226.657 70.2501 227.497 69.8071 228.033 68.9901C228.523 68.1971 228.547 67.5441 228.594 65.9101C228.197 65.8641 227.87 65.8411 227.334 65.8411Z" fill="black"/>
<path d="M234.73 54.782H236.923V71.603H234.73V54.782Z" fill="black"/>
<path d="M239.375 59.845H241.451V57.395L243.621 56.696V59.845H246.234V61.455H243.621V68.476C243.621 69.06 243.621 70.04 245.184 70.04C245.627 70.04 246.047 69.97 246.234 69.923V71.626C245.838 71.696 245.208 71.766 244.414 71.766C242.408 71.766 241.451 71.183 241.451 69.27V61.455H239.375V59.845Z" fill="black"/>
<path d="M250.948 59.8921V67.4281C250.948 68.5711 251.205 70.0181 253.445 70.0181C254.541 70.0181 255.568 69.6441 256.198 68.7111C256.687 68.0111 256.687 67.1011 256.687 66.5181V59.8921H258.951V69.4111C258.951 69.6441 258.997 70.9511 259.02 71.6041H256.734L256.687 69.5981C256.267 70.4141 255.474 71.7211 252.955 71.7211C250.061 71.7211 248.709 70.0641 248.709 67.7541V59.8921H250.948Z" fill="black"/>
<path d="M263.271 61.244L263.248 59.891H265.441L265.464 61.781C265.721 61.291 266.561 59.658 269.22 59.658C270.27 59.658 273.467 60.054 273.467 63.648V71.603H271.227V64.161C271.227 63.39 271.133 62.691 270.597 62.154C270.037 61.618 269.267 61.361 268.521 61.361C266.934 61.361 265.464 62.504 265.464 64.861V71.603H263.271V61.244Z" fill="black"/>
<path d="M279.559 72.514C279.652 73.821 280.212 74.8 282.288 74.8C285.345 74.8 285.391 72.584 285.391 69.41C284.458 71.347 282.242 71.393 281.541 71.393C280.469 71.393 278.929 71.16 277.948 69.947C276.945 68.758 276.619 67.193 276.619 65.631C276.619 61.664 278.952 59.729 281.821 59.729C284.177 59.729 285.041 60.895 285.508 61.502L285.531 59.892H287.654L287.607 62.015L287.584 69.34C287.584 72.164 287.491 73.307 287.024 74.194C286.044 76.06 283.757 76.294 282.148 76.294C277.459 76.294 277.318 74.101 277.225 72.515L279.559 72.514ZM284.668 68.594C285.135 67.988 285.461 67.358 285.461 65.235C285.461 63.764 285.135 62.924 284.551 62.319C283.968 61.688 283.034 61.292 282.031 61.292C279.255 61.292 278.882 64.092 278.882 65.585C278.882 67.382 279.418 69.761 282.102 69.761C283.385 69.76 284.131 69.294 284.668 68.594Z" fill="black"/>
<path d="M2.73264 94.6841C2.77964 95.8501 2.91964 98.0201 6.79264 98.0201C10.2926 98.0201 10.7356 95.8501 10.7356 95.0101C10.7356 93.1201 9.21864 92.7461 6.86264 92.1641C4.29664 91.5331 3.15364 91.2541 2.28964 90.6701C0.91364 89.7371 0.53964 88.4771 0.53964 87.3571C0.53964 83.9271 3.78264 82.4341 6.95564 82.4341C8.07564 82.4341 10.3386 82.6211 11.6916 84.0901C12.6246 85.1161 12.6716 86.2601 12.7176 86.9601H10.2916C10.1746 84.8601 8.40164 84.3941 6.74564 84.3941C4.41264 84.3941 3.01264 85.4441 3.01264 87.1231C3.01264 88.6161 3.99264 89.1301 6.04564 89.6201C10.0586 90.6451 10.5016 90.7391 11.4816 91.3921C13.0446 92.4181 13.1616 94.0511 13.1616 94.7521C13.1616 97.7381 10.8286 100 6.51264 100C5.22964 100 2.61664 99.7911 1.28664 98.0881C0.329641 96.8521 0.306641 95.4981 0.306641 94.6821H2.73264V94.6841Z" fill="black"/>
<path d="M22.8244 91.6501C22.7784 91.1131 22.6144 89.2011 20.4914 89.2011C17.4584 89.2011 17.4584 92.7231 17.4584 93.6091C17.4584 96.0131 18.0414 98.2531 20.3744 98.2531C22.2414 98.2531 22.8714 96.8541 22.9174 95.7101H25.1344C24.9944 97.9961 23.2914 99.9091 20.3984 99.9091C19.6054 99.9091 17.7854 99.7461 16.5484 98.3921C15.8484 97.5761 15.1484 96.3391 15.1484 93.9131C15.1484 89.0371 18.1344 87.5911 20.4674 87.5911C21.2374 87.5911 22.9874 87.7541 24.0604 89.0371C24.9234 90.0411 24.9934 90.9971 25.0394 91.6501H22.8244Z" fill="black"/>
<path d="M26.6523 82.7852H28.8683V89.6212C29.5913 88.3842 31.0383 87.6832 32.6713 87.6832C33.9083 87.6832 35.6813 88.1262 36.3583 89.5502C36.5913 90.0172 36.7543 90.5762 36.7543 92.2792V99.6041H34.5143V92.6752C34.5143 91.6252 34.5143 89.3622 31.9943 89.3622C30.3613 89.3622 29.5443 90.3662 29.2413 90.9252C28.8683 91.5782 28.8683 92.6752 28.8683 93.3992V99.6041H26.6523V82.7852Z" fill="black"/>
<path d="M41.5397 87.895L44.3627 97.227L47.3257 87.895H50.1957L52.8557 97.133L55.7947 87.895H58.0577L53.9287 99.606H51.4087L48.6557 89.971L45.5997 99.606H43.0097L39.1367 87.895H41.5397Z" fill="black"/>
<path d="M67.0205 99.6051C66.8565 99.0221 66.8104 98.4621 66.8104 97.8551C65.7604 99.7931 64.1745 99.9781 63.1945 99.9781C60.5115 99.9781 59.0645 98.4621 59.0645 96.5261C59.0645 95.5931 59.3914 94.0991 61.1174 93.0961C62.3774 92.3961 64.2435 92.3251 65.1775 92.3251C65.7375 92.3251 66.0875 92.3481 66.7635 92.3951C66.7635 90.9491 66.7635 90.3191 66.3435 89.8051C65.9005 89.2221 64.9435 89.0351 64.3135 89.0351C62.0975 89.0351 61.9805 90.5521 61.9575 91.0171H59.7645C59.8345 90.4121 59.9045 89.5951 60.5805 88.8011C61.4675 87.8221 63.1235 87.5411 64.3605 87.5411C66.0635 87.5411 67.8835 88.0771 68.5135 89.2681C68.8865 89.9681 68.9095 90.5281 68.9095 91.0641L68.8165 96.6641C68.8165 96.8521 68.8394 98.4141 69.0034 99.6031H67.0205V99.6051ZM61.0005 82.8311H63.1465V85.2111H61.0005V82.8311ZM65.5034 93.8441C64.6164 93.8441 61.2804 93.8441 61.2804 96.2231C61.2804 96.9701 61.7465 98.2531 63.7065 98.2531C64.8265 98.2531 65.6665 97.8101 66.2025 96.9921C66.6925 96.1991 66.7165 95.5471 66.7625 93.9131C66.3675 93.8671 66.0404 93.8441 65.5034 93.8441ZM65.4105 82.8311H67.5805V85.2111H65.4105V82.8311Z" fill="black"/>
<path d="M75.0496 89.598C75.3526 89.061 76.2165 87.591 78.8755 87.591C80.0425 87.591 81.5125 87.871 82.5855 89.084C83.1685 89.76 83.9615 90.927 83.9615 93.493C83.9615 95.756 83.4246 96.992 82.8416 97.763C81.9086 99.093 80.3455 99.77 78.7355 99.77C78.1755 99.77 77.1256 99.7 76.1226 99.023C75.4696 98.581 75.2125 98.183 74.9795 97.834L74.9325 99.606H72.8105L72.8576 97.506V82.762H75.0506L75.0496 89.598ZM78.3625 89.084C75.0035 89.084 75.0035 93.004 75.0035 93.75C75.0035 94.52 75.0035 98.183 78.2695 98.183C80.9765 98.183 81.6525 95.547 81.6525 93.633C81.6525 92.467 81.4185 89.084 78.3625 89.084Z" fill="black"/>
<path d="M86.9043 82.8091H89.5403V85.2111H86.9043V82.8091ZM87.1383 87.8951H89.3313V99.6061H87.1383V87.8951Z" fill="black"/>
<path d="M94.861 96.13C94.838 97.016 95.304 98.253 97.427 98.253C98.337 98.253 99.013 98.09 99.48 97.506C99.713 97.203 99.853 96.807 99.853 96.41C99.853 95.266 99.037 95.056 97.287 94.66C94.837 94.099 92.784 93.609 92.784 91.16C92.784 89.014 94.651 87.613 97.357 87.613C98.827 87.613 100.88 88.033 101.58 89.433C101.883 90.086 101.883 90.646 101.883 91.136H99.643C99.713 89.363 98.173 89.223 97.38 89.223C97.053 89.223 95.001 89.223 95.001 90.904C95.001 91.976 96.051 92.233 96.657 92.396C99.9 93.166 100.6 93.353 101.3 94.005C101.953 94.612 102.186 95.429 102.186 96.175C102.186 97.482 101.463 98.602 100.6 99.138C99.574 99.769 98.337 99.932 97.124 99.932C94.744 99.932 92.528 98.953 92.551 96.129L94.861 96.13Z" fill="black"/>
<path d="M111.941 91.6501C111.895 91.1131 111.731 89.2011 109.608 89.2011C106.575 89.2011 106.575 92.7231 106.575 93.6091C106.575 96.0131 107.158 98.2531 109.492 98.2531C111.359 98.2531 111.989 96.8541 112.035 95.7101H114.252C114.112 97.9961 112.409 99.9091 109.516 99.9091C108.723 99.9091 106.903 99.7461 105.666 98.3921C104.966 97.5761 104.266 96.3391 104.266 93.9131C104.266 89.0371 107.252 87.5911 109.585 87.5911C110.355 87.5911 112.105 87.7541 113.178 89.0371C114.041 90.0411 114.111 90.9971 114.157 91.6501H111.941Z" fill="black"/>
<path d="M115.771 82.7852H117.987V89.6212C118.71 88.3842 120.157 87.6832 121.79 87.6832C123.027 87.6832 124.8 88.1262 125.477 89.5502C125.71 90.0172 125.873 90.5762 125.873 92.2792V99.6041H123.633V92.6752C123.633 91.6252 123.633 89.3622 121.113 89.3622C119.48 89.3622 118.663 90.3662 118.36 90.9252C117.987 91.5782 117.987 92.6752 117.987 93.3992V99.6041H115.771V82.7852Z" fill="black"/>
<path d="M147.924 86.961C147.667 85.398 146.407 84.324 144.121 84.324C142.535 84.324 141.205 84.744 140.318 85.748C138.848 87.381 138.522 89.574 138.522 91.16C138.522 92.584 138.825 94.986 140.062 96.457C141.158 97.717 142.861 98.113 144.541 98.113C146.454 98.113 147.667 97.74 148.203 97.576V92.584H144.354V90.646H150.537V98.953C149.557 99.279 147.41 99.978 144.541 99.978C141.438 99.978 139.618 99.092 138.428 97.878C136.771 96.198 136.072 93.843 136.072 91.462C136.072 89.782 136.492 85.816 139.688 83.67C141.344 82.55 143.538 82.481 144.377 82.481C145.707 82.481 147.737 82.644 149.346 84.277C150.349 85.328 150.419 86.307 150.466 86.961H147.924Z" fill="black"/>
<path d="M154.645 89.4571L154.598 87.8941H156.815V89.5971C157.935 87.7531 159.522 87.5901 160.525 87.5901C163.115 87.5901 163.931 88.9191 164.351 89.7821C164.747 89.1301 165.704 87.5901 168.293 87.5901C169.973 87.5901 172.586 88.2901 172.586 91.7431V99.6041H170.37V92.0921C170.37 91.0651 170.183 90.6211 169.973 90.3191C169.6 89.7821 168.854 89.2931 167.734 89.2931C166.311 89.2931 165.542 90.1091 165.238 90.5291C164.724 91.2531 164.724 92.5361 164.724 93.0491V99.6051H162.508V91.8601C162.508 90.4141 161.668 89.2941 159.942 89.2941C158.448 89.2941 157.631 90.2271 157.376 90.5771C156.886 91.2541 156.862 92.2101 156.862 92.9571V99.6051H154.645V89.4571Z" fill="black"/>
<path d="M178.705 87.8951V95.4301C178.705 96.5731 178.961 98.0201 181.201 98.0201C182.297 98.0201 183.324 97.6471 183.954 96.7131C184.443 96.0141 184.443 95.1041 184.443 94.5201V87.8951H186.707V97.4141C186.707 97.6471 186.754 98.9541 186.777 99.6061H184.49L184.443 97.6001C184.023 98.4161 183.23 99.7231 180.711 99.7231C177.818 99.7231 176.465 98.0671 176.465 95.7561V87.8951H178.705ZM178.471 82.8311H180.617V85.2111H178.471V82.8311ZM182.881 82.8311H185.051V85.2111H182.881V82.8311Z" fill="black"/>
<path d="M191.025 89.2472L191.002 87.8941H193.195L193.218 89.7831C193.475 89.2941 194.315 87.6602 196.974 87.6602C198.025 87.6602 201.221 88.0562 201.221 91.6502V99.6052H198.981V92.1642C198.981 91.3932 198.888 90.6932 198.351 90.1572C197.791 89.6212 197.021 89.3632 196.275 89.3632C194.689 89.3632 193.218 90.5072 193.218 92.8632V99.6052H191.025V89.2472Z" fill="black"/>
<path d="M213.333 82.7852H215.525V97.7402C215.525 97.9962 215.572 99.0002 215.619 99.6052H213.426L213.379 97.7402C213.193 98.0662 212.936 98.5562 212.33 98.9762C211.373 99.6282 210.23 99.8391 209.436 99.8391C207.873 99.8391 204.396 99.0222 204.396 93.8902C204.396 89.4332 206.94 87.4972 209.693 87.4972C212.213 87.4972 213.052 88.9891 213.333 89.4791V82.7852ZM212.516 90.3202C212.05 89.7142 211.187 89.1311 209.95 89.1311C206.731 89.1311 206.731 93.0272 206.731 93.8202C206.731 95.8962 207.267 98.2992 209.95 98.2992C213.403 98.2992 213.403 94.4962 213.403 93.5862C213.402 91.8832 213.006 90.9502 212.516 90.3202Z" fill="black"/>
<path d="M3.38573 0.724121V7.95612H11.3877V0.724121H13.7207V17.5691H11.3877V9.96312H3.38573V17.5691H1.05273V0.724121H3.38573Z" fill="#E31F26"/>
<path d="M139.407 2.35707C139.033 2.33407 138.567 2.31007 138.124 2.31007C136.351 2.31007 136.351 3.19707 136.351 4.01307V5.85607H139.08V7.44207H136.351V17.5671H134.181V7.44307H131.871V5.85707H134.181V4.52707C134.181 2.91707 134.274 2.33407 134.671 1.72807C135.161 0.981068 136.094 0.445068 137.611 0.445068C138.241 0.445068 138.941 0.538068 139.407 0.608068V2.35707Z" fill="#E31F26"/>
<path d="M182.552 4.92404C182.294 3.36104 181.034 2.28705 178.748 2.28705C177.161 2.28705 175.832 2.70704 174.945 3.71004C173.475 5.34304 173.149 7.53604 173.149 9.12304C173.149 10.546 173.452 12.949 174.688 14.419C175.785 15.679 177.488 16.075 179.167 16.075C181.08 16.075 182.293 15.701 182.83 15.538V10.545H178.98V8.61005H185.163V16.916C184.184 17.243 182.037 17.943 179.167 17.943C176.064 17.943 174.244 17.056 173.055 15.843C171.399 14.163 170.699 11.807 170.699 9.42704C170.699 7.74704 171.119 3.78104 174.315 1.63505C175.971 0.515045 178.165 0.446045 179.004 0.446045C180.334 0.446045 182.363 0.609045 183.973 2.24205C184.977 3.29205 185.047 4.27204 185.094 4.92504L182.552 4.92404Z" fill="#E31F26"/>
</g>
<defs>
<clipPath id="clip0_589_1375">
<rect width="288" height="100" fill="white"/>
</clipPath>
</defs>
</svg>
