<svg width="326" height="326" viewBox="0 0 326 326" fill="none" xmlns="http://www.w3.org/2000/svg">
<path d="M266.495 234.9C297.429 203.965 297.429 153.81 266.495 122.875C235.56 91.9404 185.404 91.9404 154.47 122.875C123.535 153.81 123.535 203.965 154.47 234.9C185.404 265.835 235.56 265.835 266.495 234.9Z" fill="#FCEA2B"/>
<path d="M215.279 247.703C211.708 251.274 207.995 254.615 204.197 257.802C226.509 259.567 249.424 251.967 266.491 234.9C297.427 203.965 297.427 153.809 266.491 122.874C265.963 122.346 265.387 121.898 264.847 121.388C266.523 166.9 250.023 212.959 215.279 247.703Z" fill="#F1B31C"/>
<path d="M111.606 270.124C125.748 255.983 125.748 233.054 111.606 218.913C97.4645 204.771 74.5364 204.771 60.3948 218.913C46.2531 233.054 46.2531 255.983 60.3948 270.124C74.5364 284.266 97.4645 284.266 111.606 270.124Z" fill="#FCEA2B"/>
<path d="M88.2028 275.979C86.5701 277.612 84.8726 279.139 83.1367 280.596C93.3368 281.402 103.812 277.929 111.614 270.126C125.756 255.984 125.756 233.056 111.614 218.914C111.372 218.673 111.109 218.468 110.862 218.235C111.629 239.041 104.086 260.096 88.2028 275.979Z" fill="#F1B31C"/>
<path d="M116.682 130.353C136.127 110.908 136.127 79.3819 116.682 59.9372C97.2374 40.4924 65.7112 40.4924 46.2665 59.9372C26.8217 79.3819 26.8217 110.908 46.2665 130.353C65.7112 149.798 97.2374 149.798 116.682 130.353Z" fill="#FCEA2B"/>
<path d="M84.4913 138.401C82.2461 140.646 79.9127 142.746 77.5254 144.749C91.5504 145.858 105.954 141.081 116.682 130.353C136.127 110.908 136.127 79.3819 116.682 59.9372C116.349 59.605 115.987 59.3239 115.648 59.0029C116.702 87.6111 106.33 116.562 84.4913 138.401Z" fill="#F1B31C"/>
<path d="M85.9955 280.734C105.995 280.734 122.208 264.521 122.208 244.522C122.208 224.522 105.995 208.31 85.9955 208.31C65.996 208.31 49.7832 224.522 49.7832 244.522C49.7832 264.521 65.996 280.734 85.9955 280.734Z" stroke="#313131" stroke-width="15.1586" stroke-miterlimit="10" stroke-linecap="round" stroke-linejoin="round"/>
<path d="M210.474 258.1C254.223 258.1 289.689 222.635 289.689 178.886C289.689 135.137 254.223 99.6714 210.474 99.6714C166.725 99.6714 131.26 135.137 131.26 178.886C131.26 222.635 166.725 258.1 210.474 258.1Z" stroke="#313131" stroke-width="15.1586" stroke-miterlimit="10" stroke-linecap="round" stroke-linejoin="round"/>
<path d="M81.4696 144.938C108.969 144.938 131.262 122.645 131.262 95.1459C131.262 67.6466 108.969 45.354 81.4696 45.354C53.9703 45.354 31.6777 67.6466 31.6777 95.1459C31.6777 122.645 53.9703 144.938 81.4696 144.938Z" stroke="#313131" stroke-width="15.1586" stroke-miterlimit="10" stroke-linecap="round" stroke-linejoin="round"/>
</svg>
